<?xml version="1.0" encoding="utf-8" standalone="no"?>
<!DOCTYPE svg PUBLIC "-//W3C//DTD SVG 1.1//EN"
  "http://www.w3.org/Graphics/SVG/1.1/DTD/svg11.dtd">
<svg xmlns:xlink="http://www.w3.org/1999/xlink" width="435.54725pt" height="329.449312pt" viewBox="0 0 435.54725 329.449312" xmlns="http://www.w3.org/2000/svg" version="1.1">
 <metadata>
  <rdf:RDF xmlns:dc="http://purl.org/dc/elements/1.1/" xmlns:cc="http://creativecommons.org/ns#" xmlns:rdf="http://www.w3.org/1999/02/22-rdf-syntax-ns#">
   <cc:Work>
    <dc:type rdf:resource="http://purl.org/dc/dcmitype/StillImage"/>
    <dc:date>2023-04-14T10:35:16.301158</dc:date>
    <dc:format>image/svg+xml</dc:format>
    <dc:creator>
     <cc:Agent>
      <dc:title>Matplotlib v3.7.1, https://matplotlib.org/</dc:title>
     </cc:Agent>
    </dc:creator>
   </cc:Work>
  </rdf:RDF>
 </metadata>
 <defs>
  <style type="text/css">*{stroke-linejoin: round; stroke-linecap: butt}</style>
 </defs>
 <g id="figure_1">
  <g id="patch_1">
   <path d="M 0 329.449312 
L 435.54725 329.449312 
L 435.54725 0 
L 0 0 
z
" style="fill: #ffffff"/>
  </g>
  <g id="axes_1">
   <g id="patch_2">
    <path d="M 65.931875 290.28525 
L 423.051875 290.28525 
L 423.051875 24.17325 
L 65.931875 24.17325 
z
" style="fill: #e5e5e5"/>
   </g>
   <g id="matplotlib.axis_1">
    <g id="xtick_1">
     <g id="line2d_1">
      <path d="M 82.164602 290.28525 
L 82.164602 24.17325 
" clip-path="url(#pbc1baa33f2)" style="fill: none; stroke: #ffffff; stroke-width: 0.8; stroke-linecap: square"/>
     </g>
     <g id="line2d_2">
      <defs>
       <path id="m0dde991e16" d="M 0 0 
L 0 3.5 
" style="stroke: #555555; stroke-width: 0.8"/>
      </defs>
      <g>
       <use xlink:href="#m0dde991e16" x="82.164602" y="290.28525" style="fill: #555555; stroke: #555555; stroke-width: 0.8"/>
      </g>
     </g>
     <g id="text_1">
      <!-- 1 -->
      <g style="fill: #555555" transform="translate(79.134915 304.805562) scale(0.1 -0.1)">
       <defs>
        <path id="NanumGothic-31" d="M 2362 -211 
Q 2362 -301 2272 -301 
L 2010 -301 
Q 1920 -301 1920 -211 
L 1920 3949 
Q 1722 3782 1549 3635 
Q 1376 3488 1184 3322 
Q 1114 3264 1056 3334 
L 928 3488 
Q 909 3520 909 3555 
Q 909 3590 941 3616 
L 1933 4448 
Q 1958 4474 2010 4474 
L 2182 4474 
Q 2317 4474 2339 4451 
Q 2362 4429 2362 4294 
L 2362 -211 
z
" transform="scale(0.015625)"/>
       </defs>
       <use xlink:href="#NanumGothic-31"/>
      </g>
     </g>
    </g>
    <g id="xtick_2">
     <g id="line2d_3">
      <path d="M 100.200966 290.28525 
L 100.200966 24.17325 
" clip-path="url(#pbc1baa33f2)" style="fill: none; stroke: #ffffff; stroke-width: 0.8; stroke-linecap: square"/>
     </g>
     <g id="line2d_4">
      <g>
       <use xlink:href="#m0dde991e16" x="100.200966" y="290.28525" style="fill: #555555; stroke: #555555; stroke-width: 0.8"/>
      </g>
     </g>
     <g id="text_2">
      <!-- 2 -->
      <g style="fill: #555555" transform="translate(97.171278 304.805562) scale(0.1 -0.1)">
       <defs>
        <path id="NanumGothic-32" d="M 576 -301 
Q 506 -301 470 -297 
Q 435 -294 419 -278 
Q 403 -262 400 -227 
Q 397 -192 397 -122 
L 403 19 
Q 403 102 454 154 
L 1510 1318 
Q 2688 2592 2688 3251 
Q 2688 3635 2432 3891 
Q 2182 4141 1811 4141 
Q 1293 4141 730 3853 
Q 640 3808 627 3891 
L 589 4102 
Q 570 4211 653 4237 
Q 979 4384 1241 4454 
Q 1504 4525 1779 4525 
Q 2394 4525 2758 4218 
Q 3168 3885 3168 3270 
Q 3168 3034 3053 2752 
Q 2938 2470 2733 2163 
Q 2605 1984 2371 1696 
Q 2138 1408 1837 1082 
Q 1613 838 1392 588 
Q 1171 339 947 96 
L 3187 96 
Q 3277 96 3277 6 
L 3277 -211 
Q 3277 -301 3187 -301 
L 576 -301 
z
" transform="scale(0.015625)"/>
       </defs>
       <use xlink:href="#NanumGothic-32"/>
      </g>
     </g>
    </g>
    <g id="xtick_3">
     <g id="line2d_5">
      <path d="M 118.23733 290.28525 
L 118.23733 24.17325 
" clip-path="url(#pbc1baa33f2)" style="fill: none; stroke: #ffffff; stroke-width: 0.8; stroke-linecap: square"/>
     </g>
     <g id="line2d_6">
      <g>
       <use xlink:href="#m0dde991e16" x="118.23733" y="290.28525" style="fill: #555555; stroke: #555555; stroke-width: 0.8"/>
      </g>
     </g>
     <g id="text_3">
      <!-- 3 -->
      <g style="fill: #555555" transform="translate(115.207642 304.805562) scale(0.1 -0.1)">
       <defs>
        <path id="NanumGothic-33" d="M 493 -192 
Q 397 -166 410 -45 
L 435 205 
Q 448 282 538 243 
Q 806 134 1046 89 
Q 1286 45 1606 38 
Q 2112 32 2458 294 
Q 2861 563 2861 1082 
Q 2861 1990 1498 1990 
L 1165 1990 
Q 1082 1990 1082 2061 
L 1082 2298 
Q 1082 2381 1165 2381 
L 1197 2381 
Q 1882 2381 2266 2528 
Q 2848 2752 2848 3334 
Q 2848 3520 2749 3677 
Q 2650 3834 2483 3942 
Q 2330 4032 2138 4083 
Q 1946 4134 1734 4134 
Q 1517 4134 1254 4076 
Q 992 4019 749 3923 
Q 666 3891 653 3974 
L 627 4211 
Q 608 4301 710 4339 
Q 998 4435 1248 4480 
Q 1498 4525 1779 4525 
Q 2426 4525 2835 4250 
Q 3302 3936 3302 3334 
Q 3302 2906 2995 2592 
Q 2739 2317 2330 2189 
Q 2534 2163 2710 2080 
Q 2886 1997 3014 1850 
Q 3162 1690 3238 1488 
Q 3315 1286 3315 1043 
Q 3315 723 3184 464 
Q 3053 205 2810 19 
Q 2573 -154 2265 -253 
Q 1958 -352 1581 -346 
Q 1242 -339 995 -307 
Q 749 -275 493 -192 
z
" transform="scale(0.015625)"/>
       </defs>
       <use xlink:href="#NanumGothic-33"/>
      </g>
     </g>
    </g>
    <g id="xtick_4">
     <g id="line2d_7">
      <path d="M 136.273693 290.28525 
L 136.273693 24.17325 
" clip-path="url(#pbc1baa33f2)" style="fill: none; stroke: #ffffff; stroke-width: 0.8; stroke-linecap: square"/>
     </g>
     <g id="line2d_8">
      <g>
       <use xlink:href="#m0dde991e16" x="136.273693" y="290.28525" style="fill: #555555; stroke: #555555; stroke-width: 0.8"/>
      </g>
     </g>
     <g id="text_4">
      <!-- 4 -->
      <g style="fill: #555555" transform="translate(133.244006 304.805562) scale(0.1 -0.1)">
       <defs>
        <path id="NanumGothic-34" d="M 2509 1216 
L 2509 4070 
Q 2035 3354 1568 2643 
Q 1101 1933 621 1216 
L 2509 1216 
z
M 2944 -211 
Q 2944 -301 2854 -301 
L 2598 -301 
Q 2509 -301 2509 -211 
L 2509 826 
L 397 826 
Q 262 826 240 848 
Q 218 870 218 1005 
L 218 1203 
Q 218 1261 224 1280 
Q 230 1299 262 1350 
L 2304 4397 
Q 2342 4454 2358 4464 
Q 2374 4474 2445 4474 
L 2765 4474 
Q 2899 4474 2921 4451 
Q 2944 4429 2944 4294 
L 2944 1216 
L 3578 1216 
Q 3667 1216 3667 1126 
L 3667 915 
Q 3667 826 3578 826 
L 2944 826 
L 2944 -211 
z
" transform="scale(0.015625)"/>
       </defs>
       <use xlink:href="#NanumGothic-34"/>
      </g>
     </g>
    </g>
    <g id="xtick_5">
     <g id="line2d_9">
      <path d="M 154.310057 290.28525 
L 154.310057 24.17325 
" clip-path="url(#pbc1baa33f2)" style="fill: none; stroke: #ffffff; stroke-width: 0.8; stroke-linecap: square"/>
     </g>
     <g id="line2d_10">
      <g>
       <use xlink:href="#m0dde991e16" x="154.310057" y="290.28525" style="fill: #555555; stroke: #555555; stroke-width: 0.8"/>
      </g>
     </g>
     <g id="text_5">
      <!-- 5 -->
      <g style="fill: #555555" transform="translate(151.280369 304.805562) scale(0.1 -0.1)">
       <defs>
        <path id="NanumGothic-35" d="M 736 -205 
Q 646 -173 646 -90 
L 646 179 
Q 646 288 736 243 
Q 966 134 1187 89 
Q 1408 45 1670 45 
Q 2234 45 2586 320 
Q 2970 614 2970 1165 
Q 2970 2246 1734 2246 
Q 1491 2246 1296 2220 
Q 1101 2195 864 2131 
Q 794 2112 749 2147 
Q 704 2182 704 2253 
L 742 4294 
Q 742 4429 764 4451 
Q 787 4474 922 4474 
L 3110 4474 
Q 3200 4474 3200 4384 
L 3200 4173 
Q 3200 4083 3110 4083 
L 1178 4083 
Q 1171 3680 1161 3296 
Q 1152 2912 1146 2509 
Q 1459 2630 1907 2630 
Q 2579 2630 2995 2266 
Q 3411 1888 3411 1254 
Q 3411 480 2931 58 
Q 2470 -346 1670 -346 
Q 1382 -346 1171 -314 
Q 960 -282 736 -205 
z
" transform="scale(0.015625)"/>
       </defs>
       <use xlink:href="#NanumGothic-35"/>
      </g>
     </g>
    </g>
    <g id="xtick_6">
     <g id="line2d_11">
      <path d="M 172.34642 290.28525 
L 172.34642 24.17325 
" clip-path="url(#pbc1baa33f2)" style="fill: none; stroke: #ffffff; stroke-width: 0.8; stroke-linecap: square"/>
     </g>
     <g id="line2d_12">
      <g>
       <use xlink:href="#m0dde991e16" x="172.34642" y="290.28525" style="fill: #555555; stroke: #555555; stroke-width: 0.8"/>
      </g>
     </g>
     <g id="text_6">
      <!-- 6 -->
      <g style="fill: #555555" transform="translate(169.316733 304.805562) scale(0.1 -0.1)">
       <defs>
        <path id="NanumGothic-36" d="M 3078 1203 
Q 3078 1722 2810 2022 
Q 2541 2330 2042 2330 
Q 1786 2330 1581 2250 
Q 1376 2170 1232 2029 
Q 1088 1888 1008 1689 
Q 928 1491 928 1254 
Q 928 768 1197 435 
Q 1491 45 1984 45 
Q 2490 45 2797 384 
Q 3078 704 3078 1203 
z
M 3245 4013 
Q 3098 4064 2909 4096 
Q 2720 4128 2534 4128 
Q 1664 4128 1248 3501 
Q 896 2976 883 2061 
Q 1024 2317 1293 2496 
Q 1626 2733 2042 2733 
Q 2624 2733 3021 2426 
Q 3526 2035 3526 1235 
Q 3526 557 3110 109 
Q 2688 -346 1971 -346 
Q 435 -346 435 1920 
Q 435 3104 909 3770 
Q 1466 4525 2586 4525 
Q 2752 4525 2934 4499 
Q 3117 4474 3270 4429 
Q 3366 4410 3354 4314 
L 3341 4077 
Q 3341 4032 3309 4016 
Q 3277 4000 3245 4013 
z
" transform="scale(0.015625)"/>
       </defs>
       <use xlink:href="#NanumGothic-36"/>
      </g>
     </g>
    </g>
    <g id="xtick_7">
     <g id="line2d_13">
      <path d="M 190.382784 290.28525 
L 190.382784 24.17325 
" clip-path="url(#pbc1baa33f2)" style="fill: none; stroke: #ffffff; stroke-width: 0.8; stroke-linecap: square"/>
     </g>
     <g id="line2d_14">
      <g>
       <use xlink:href="#m0dde991e16" x="190.382784" y="290.28525" style="fill: #555555; stroke: #555555; stroke-width: 0.8"/>
      </g>
     </g>
     <g id="text_7">
      <!-- 7 -->
      <g style="fill: #555555" transform="translate(187.353097 304.805562) scale(0.1 -0.1)">
       <defs>
        <path id="NanumGothic-37" d="M 1549 -211 
Q 1504 -301 1421 -301 
L 1101 -301 
Q 1062 -301 1046 -275 
Q 1030 -250 1050 -211 
L 2912 4083 
L 538 4083 
Q 448 4083 448 4173 
L 448 4384 
Q 448 4474 538 4474 
L 3194 4474 
Q 3328 4474 3350 4451 
Q 3373 4429 3373 4294 
L 3373 4134 
Q 3373 4083 3354 4045 
L 1549 -211 
z
" transform="scale(0.015625)"/>
       </defs>
       <use xlink:href="#NanumGothic-37"/>
      </g>
     </g>
    </g>
    <g id="xtick_8">
     <g id="line2d_15">
      <path d="M 208.419148 290.28525 
L 208.419148 24.17325 
" clip-path="url(#pbc1baa33f2)" style="fill: none; stroke: #ffffff; stroke-width: 0.8; stroke-linecap: square"/>
     </g>
     <g id="line2d_16">
      <g>
       <use xlink:href="#m0dde991e16" x="208.419148" y="290.28525" style="fill: #555555; stroke: #555555; stroke-width: 0.8"/>
      </g>
     </g>
     <g id="text_8">
      <!-- 8 -->
      <g style="fill: #555555" transform="translate(205.38946 304.805562) scale(0.1 -0.1)">
       <defs>
        <path id="NanumGothic-38" d="M 2944 3360 
Q 2944 3725 2624 3936 
Q 2342 4134 1965 4134 
Q 1555 4134 1274 3930 
Q 966 3725 966 3360 
Q 966 3027 1286 2758 
Q 1376 2675 1526 2579 
Q 1677 2483 1882 2387 
Q 1933 2362 1965 2365 
Q 1997 2368 2061 2400 
Q 2470 2624 2707 2870 
Q 2944 3117 2944 3360 
z
M 3104 960 
Q 3104 1312 2784 1574 
Q 2682 1658 2496 1760 
Q 2310 1862 2042 1984 
Q 1958 2029 1856 1984 
Q 1606 1888 1414 1782 
Q 1222 1677 1107 1587 
Q 979 1459 899 1289 
Q 819 1120 819 928 
Q 819 538 1184 288 
Q 1517 38 1965 38 
Q 2426 38 2739 256 
Q 3104 506 3104 960 
z
M 3552 928 
Q 3552 614 3421 364 
Q 3290 115 3046 -51 
Q 2835 -192 2560 -269 
Q 2285 -346 1965 -346 
Q 1651 -346 1379 -262 
Q 1107 -179 883 -32 
Q 640 141 505 387 
Q 371 634 371 928 
Q 371 1427 704 1741 
Q 960 1984 1491 2182 
Q 518 2662 518 3411 
Q 518 3680 652 3888 
Q 787 4096 1030 4262 
Q 1235 4390 1468 4457 
Q 1702 4525 1965 4525 
Q 2272 4525 2515 4457 
Q 2758 4390 2957 4256 
Q 3398 3949 3398 3411 
Q 3398 2746 2400 2182 
Q 2662 2086 2870 1971 
Q 3078 1856 3206 1741 
Q 3552 1434 3552 928 
z
" transform="scale(0.015625)"/>
       </defs>
       <use xlink:href="#NanumGothic-38"/>
      </g>
     </g>
    </g>
    <g id="xtick_9">
     <g id="line2d_17">
      <path d="M 226.455511 290.28525 
L 226.455511 24.17325 
" clip-path="url(#pbc1baa33f2)" style="fill: none; stroke: #ffffff; stroke-width: 0.8; stroke-linecap: square"/>
     </g>
     <g id="line2d_18">
      <g>
       <use xlink:href="#m0dde991e16" x="226.455511" y="290.28525" style="fill: #555555; stroke: #555555; stroke-width: 0.8"/>
      </g>
     </g>
     <g id="text_9">
      <!-- 9 -->
      <g style="fill: #555555" transform="translate(223.425824 304.805562) scale(0.1 -0.1)">
       <defs>
        <path id="NanumGothic-39" d="M 2995 2925 
Q 2995 3424 2726 3763 
Q 2432 4128 1946 4128 
Q 1427 4128 1133 3802 
Q 845 3494 845 2982 
Q 845 2438 1107 2138 
L 1101 2138 
Q 1376 1843 1882 1843 
Q 2406 1843 2701 2138 
Q 2995 2445 2995 2925 
z
M 653 -256 
Q 557 -237 570 -109 
L 589 115 
Q 602 192 691 154 
Q 851 90 1014 64 
Q 1178 38 1382 38 
Q 1830 38 2163 214 
Q 2496 390 2707 717 
Q 3027 1254 3040 2080 
Q 2650 1453 1882 1453 
Q 1293 1453 896 1754 
Q 390 2144 390 2950 
Q 390 3661 806 4083 
Q 1229 4525 1958 4525 
Q 3494 4525 3494 2259 
Q 3494 -346 1338 -346 
Q 1043 -346 653 -256 
z
" transform="scale(0.015625)"/>
       </defs>
       <use xlink:href="#NanumGothic-39"/>
      </g>
     </g>
    </g>
    <g id="xtick_10">
     <g id="line2d_19">
      <path d="M 244.491875 290.28525 
L 244.491875 24.17325 
" clip-path="url(#pbc1baa33f2)" style="fill: none; stroke: #ffffff; stroke-width: 0.8; stroke-linecap: square"/>
     </g>
     <g id="line2d_20">
      <g>
       <use xlink:href="#m0dde991e16" x="244.491875" y="290.28525" style="fill: #555555; stroke: #555555; stroke-width: 0.8"/>
      </g>
     </g>
     <g id="text_10">
      <!-- 10 -->
      <g style="fill: #555555" transform="translate(238.4325 304.805562) scale(0.1 -0.1)">
       <defs>
        <path id="NanumGothic-30" d="M 3066 2093 
Q 3066 4102 1965 4102 
Q 864 4102 864 2093 
Q 864 77 1965 77 
Q 3066 77 3066 2093 
z
M 3526 2093 
Q 3526 -326 1965 -326 
Q 390 -326 390 2093 
Q 390 3098 698 3725 
Q 1088 4512 1965 4512 
Q 2829 4512 3226 3725 
Q 3373 3411 3449 3008 
Q 3526 2605 3526 2093 
z
" transform="scale(0.015625)"/>
       </defs>
       <use xlink:href="#NanumGothic-31"/>
       <use xlink:href="#NanumGothic-30" x="60.599991"/>
      </g>
     </g>
    </g>
    <g id="xtick_11">
     <g id="line2d_21">
      <path d="M 262.528239 290.28525 
L 262.528239 24.17325 
" clip-path="url(#pbc1baa33f2)" style="fill: none; stroke: #ffffff; stroke-width: 0.8; stroke-linecap: square"/>
     </g>
     <g id="line2d_22">
      <g>
       <use xlink:href="#m0dde991e16" x="262.528239" y="290.28525" style="fill: #555555; stroke: #555555; stroke-width: 0.8"/>
      </g>
     </g>
     <g id="text_11">
      <!-- 11 -->
      <g style="fill: #555555" transform="translate(256.468864 304.805562) scale(0.1 -0.1)">
       <use xlink:href="#NanumGothic-31"/>
       <use xlink:href="#NanumGothic-31" x="60.599991"/>
      </g>
     </g>
    </g>
    <g id="xtick_12">
     <g id="line2d_23">
      <path d="M 280.564602 290.28525 
L 280.564602 24.17325 
" clip-path="url(#pbc1baa33f2)" style="fill: none; stroke: #ffffff; stroke-width: 0.8; stroke-linecap: square"/>
     </g>
     <g id="line2d_24">
      <g>
       <use xlink:href="#m0dde991e16" x="280.564602" y="290.28525" style="fill: #555555; stroke: #555555; stroke-width: 0.8"/>
      </g>
     </g>
     <g id="text_12">
      <!-- 12 -->
      <g style="fill: #555555" transform="translate(274.505227 304.805562) scale(0.1 -0.1)">
       <use xlink:href="#NanumGothic-31"/>
       <use xlink:href="#NanumGothic-32" x="60.599991"/>
      </g>
     </g>
    </g>
    <g id="xtick_13">
     <g id="line2d_25">
      <path d="M 298.600966 290.28525 
L 298.600966 24.17325 
" clip-path="url(#pbc1baa33f2)" style="fill: none; stroke: #ffffff; stroke-width: 0.8; stroke-linecap: square"/>
     </g>
     <g id="line2d_26">
      <g>
       <use xlink:href="#m0dde991e16" x="298.600966" y="290.28525" style="fill: #555555; stroke: #555555; stroke-width: 0.8"/>
      </g>
     </g>
     <g id="text_13">
      <!-- 13 -->
      <g style="fill: #555555" transform="translate(292.541591 304.805562) scale(0.1 -0.1)">
       <use xlink:href="#NanumGothic-31"/>
       <use xlink:href="#NanumGothic-33" x="60.599991"/>
      </g>
     </g>
    </g>
    <g id="xtick_14">
     <g id="line2d_27">
      <path d="M 316.63733 290.28525 
L 316.63733 24.17325 
" clip-path="url(#pbc1baa33f2)" style="fill: none; stroke: #ffffff; stroke-width: 0.8; stroke-linecap: square"/>
     </g>
     <g id="line2d_28">
      <g>
       <use xlink:href="#m0dde991e16" x="316.63733" y="290.28525" style="fill: #555555; stroke: #555555; stroke-width: 0.8"/>
      </g>
     </g>
     <g id="text_14">
      <!-- 14 -->
      <g style="fill: #555555" transform="translate(310.577955 304.805562) scale(0.1 -0.1)">
       <use xlink:href="#NanumGothic-31"/>
       <use xlink:href="#NanumGothic-34" x="60.599991"/>
      </g>
     </g>
    </g>
    <g id="xtick_15">
     <g id="line2d_29">
      <path d="M 334.673693 290.28525 
L 334.673693 24.17325 
" clip-path="url(#pbc1baa33f2)" style="fill: none; stroke: #ffffff; stroke-width: 0.8; stroke-linecap: square"/>
     </g>
     <g id="line2d_30">
      <g>
       <use xlink:href="#m0dde991e16" x="334.673693" y="290.28525" style="fill: #555555; stroke: #555555; stroke-width: 0.8"/>
      </g>
     </g>
     <g id="text_15">
      <!-- 15 -->
      <g style="fill: #555555" transform="translate(328.614318 304.805562) scale(0.1 -0.1)">
       <use xlink:href="#NanumGothic-31"/>
       <use xlink:href="#NanumGothic-35" x="60.599991"/>
      </g>
     </g>
    </g>
    <g id="xtick_16">
     <g id="line2d_31">
      <path d="M 352.710057 290.28525 
L 352.710057 24.17325 
" clip-path="url(#pbc1baa33f2)" style="fill: none; stroke: #ffffff; stroke-width: 0.8; stroke-linecap: square"/>
     </g>
     <g id="line2d_32">
      <g>
       <use xlink:href="#m0dde991e16" x="352.710057" y="290.28525" style="fill: #555555; stroke: #555555; stroke-width: 0.8"/>
      </g>
     </g>
     <g id="text_16">
      <!-- 16 -->
      <g style="fill: #555555" transform="translate(346.650682 304.805562) scale(0.1 -0.1)">
       <use xlink:href="#NanumGothic-31"/>
       <use xlink:href="#NanumGothic-36" x="60.599991"/>
      </g>
     </g>
    </g>
    <g id="xtick_17">
     <g id="line2d_33">
      <path d="M 370.74642 290.28525 
L 370.74642 24.17325 
" clip-path="url(#pbc1baa33f2)" style="fill: none; stroke: #ffffff; stroke-width: 0.8; stroke-linecap: square"/>
     </g>
     <g id="line2d_34">
      <g>
       <use xlink:href="#m0dde991e16" x="370.74642" y="290.28525" style="fill: #555555; stroke: #555555; stroke-width: 0.8"/>
      </g>
     </g>
     <g id="text_17">
      <!-- 17 -->
      <g style="fill: #555555" transform="translate(364.687045 304.805562) scale(0.1 -0.1)">
       <use xlink:href="#NanumGothic-31"/>
       <use xlink:href="#NanumGothic-37" x="60.599991"/>
      </g>
     </g>
    </g>
    <g id="xtick_18">
     <g id="line2d_35">
      <path d="M 388.782784 290.28525 
L 388.782784 24.17325 
" clip-path="url(#pbc1baa33f2)" style="fill: none; stroke: #ffffff; stroke-width: 0.8; stroke-linecap: square"/>
     </g>
     <g id="line2d_36">
      <g>
       <use xlink:href="#m0dde991e16" x="388.782784" y="290.28525" style="fill: #555555; stroke: #555555; stroke-width: 0.8"/>
      </g>
     </g>
     <g id="text_18">
      <!-- 18 -->
      <g style="fill: #555555" transform="translate(382.723409 304.805562) scale(0.1 -0.1)">
       <use xlink:href="#NanumGothic-31"/>
       <use xlink:href="#NanumGothic-38" x="60.599991"/>
      </g>
     </g>
    </g>
    <g id="xtick_19">
     <g id="line2d_37">
      <path d="M 406.819148 290.28525 
L 406.819148 24.17325 
" clip-path="url(#pbc1baa33f2)" style="fill: none; stroke: #ffffff; stroke-width: 0.8; stroke-linecap: square"/>
     </g>
     <g id="line2d_38">
      <g>
       <use xlink:href="#m0dde991e16" x="406.819148" y="290.28525" style="fill: #555555; stroke: #555555; stroke-width: 0.8"/>
      </g>
     </g>
     <g id="text_19">
      <!-- 19 -->
      <g style="fill: #555555" transform="translate(400.759773 304.805562) scale(0.1 -0.1)">
       <use xlink:href="#NanumGothic-31"/>
       <use xlink:href="#NanumGothic-39" x="60.599991"/>
      </g>
     </g>
    </g>
    <g id="text_20">
     <!-- number of clusters, k -->
     <g style="fill: #555555" transform="translate(186.191563 319.898062) scale(0.12 -0.12)">
      <defs>
       <path id="NanumGothic-6e" d="M 3334 -186 
Q 3334 -275 3245 -275 
L 2989 -275 
Q 2899 -275 2899 -186 
L 2899 1830 
Q 2899 2419 2688 2665 
Q 2477 2912 2093 2912 
Q 1574 2912 1302 2624 
Q 1030 2336 1030 1818 
L 1030 -186 
Q 1030 -275 941 -275 
L 685 -275 
Q 595 -275 595 -186 
L 595 2374 
Q 595 2650 592 2803 
Q 589 2957 576 3098 
Q 570 3142 598 3164 
Q 627 3187 666 3187 
L 896 3187 
Q 986 3187 986 3098 
L 986 2746 
Q 1165 3021 1417 3149 
Q 1670 3277 2112 3277 
Q 2720 3277 3027 2925 
Q 3334 2573 3334 1933 
L 3334 -186 
z
" transform="scale(0.015625)"/>
       <path id="NanumGothic-75" d="M 3347 -186 
Q 3347 -275 3258 -275 
L 3027 -275 
Q 2938 -275 2938 -186 
L 2938 346 
Q 2771 -38 2492 -208 
Q 2214 -378 1792 -378 
Q 595 -378 595 960 
L 595 3098 
Q 595 3187 685 3187 
L 941 3187 
Q 1030 3187 1030 3098 
L 1030 1075 
Q 1030 -13 1862 -13 
Q 2106 -13 2301 92 
Q 2496 198 2630 380 
Q 2765 563 2835 806 
Q 2906 1050 2899 1318 
L 2899 3098 
Q 2899 3187 2989 3187 
L 3245 3187 
Q 3334 3187 3334 3098 
L 3334 525 
Q 3334 314 3337 147 
Q 3341 -19 3347 -186 
z
" transform="scale(0.015625)"/>
       <path id="NanumGothic-6d" d="M 602 2374 
Q 602 2643 595 2800 
Q 589 2957 576 3098 
Q 576 3187 666 3187 
L 902 3187 
Q 992 3187 992 3098 
L 992 2752 
Q 1139 2989 1388 3126 
Q 1638 3264 2003 3264 
Q 2387 3264 2675 3075 
Q 2963 2886 3027 2522 
Q 3162 2886 3459 3075 
Q 3757 3264 4147 3264 
Q 4397 3264 4598 3174 
Q 4800 3085 4944 2928 
Q 5088 2771 5165 2560 
Q 5242 2349 5242 2112 
L 5242 -186 
Q 5242 -275 5152 -275 
L 4909 -275 
Q 4819 -275 4819 -192 
L 4819 2022 
Q 4819 2899 4083 2899 
Q 3859 2899 3683 2800 
Q 3507 2701 3382 2528 
Q 3258 2355 3197 2124 
Q 3136 1894 3142 1638 
L 3142 -186 
Q 3142 -275 3053 -275 
L 2797 -275 
Q 2707 -275 2707 -186 
L 2707 2022 
Q 2707 2899 1965 2899 
Q 1530 2899 1280 2617 
Q 1030 2336 1030 1875 
L 1030 -186 
Q 1030 -275 941 -275 
L 691 -275 
Q 602 -275 602 -186 
L 602 2374 
z
" transform="scale(0.015625)"/>
       <path id="NanumGothic-62" d="M 3066 1478 
Q 3072 1747 3017 2003 
Q 2963 2259 2841 2464 
Q 2720 2669 2518 2793 
Q 2317 2918 2022 2918 
Q 1760 2918 1565 2806 
Q 1370 2694 1242 2496 
Q 1114 2298 1050 2035 
Q 986 1773 986 1478 
Q 986 1190 1066 924 
Q 1146 659 1283 460 
Q 1421 262 1609 144 
Q 1798 26 2022 26 
Q 2317 26 2518 150 
Q 2720 275 2841 480 
Q 2963 685 3017 947 
Q 3072 1210 3066 1478 
z
M 557 4749 
Q 557 4838 646 4838 
L 896 4838 
Q 986 4838 986 4749 
L 986 2707 
Q 1146 2970 1440 3126 
Q 1734 3283 2099 3283 
Q 3526 3283 3526 1478 
Q 3533 1120 3453 790 
Q 3373 461 3193 211 
Q 3014 -38 2742 -188 
Q 2470 -339 2099 -339 
Q 1331 -339 986 314 
L 986 -186 
Q 986 -275 896 -275 
L 646 -275 
Q 557 -275 557 -186 
L 557 4749 
z
" transform="scale(0.015625)"/>
       <path id="NanumGothic-65" d="M 2733 1696 
Q 2733 1958 2681 2163 
Q 2630 2368 2522 2534 
Q 2285 2912 1837 2912 
Q 1376 2912 1088 2528 
Q 973 2355 896 2131 
Q 819 1907 813 1696 
L 2733 1696 
z
M 813 1331 
Q 806 1011 886 764 
Q 966 518 1120 352 
Q 1274 186 1488 96 
Q 1702 6 1965 6 
Q 2221 6 2445 54 
Q 2669 102 2861 211 
Q 2944 250 2944 166 
L 2944 -122 
Q 2944 -179 2874 -211 
Q 2662 -294 2432 -336 
Q 2202 -378 1933 -378 
Q 1146 -378 742 80 
Q 339 538 339 1459 
Q 339 2272 742 2771 
Q 1165 3277 1811 3277 
Q 2170 3277 2432 3149 
Q 2694 3021 2880 2765 
Q 3206 2310 3206 1549 
Q 3206 1466 3203 1421 
Q 3200 1376 3181 1357 
Q 3162 1338 3114 1334 
Q 3066 1331 2976 1331 
L 813 1331 
z
" transform="scale(0.015625)"/>
       <path id="NanumGothic-72" d="M 2221 2797 
Q 2106 2835 1914 2835 
Q 1440 2835 1210 2368 
Q 1030 2003 1030 1434 
L 1030 -186 
Q 1030 -275 941 -275 
L 691 -275 
Q 602 -275 602 -186 
L 602 2413 
Q 602 2643 598 2787 
Q 595 2931 589 3098 
Q 589 3187 678 3187 
L 915 3187 
Q 1005 3187 1005 3098 
L 1005 2470 
Q 1318 3277 1926 3277 
Q 2074 3277 2221 3238 
Q 2259 3226 2288 3197 
Q 2317 3168 2317 3117 
L 2317 2848 
Q 2317 2810 2285 2797 
Q 2253 2784 2221 2797 
z
" transform="scale(0.015625)"/>
       <path id="NanumGothic-20" transform="scale(0.015625)"/>
       <path id="NanumGothic-6f" d="M 3130 1453 
Q 3130 1754 3050 2016 
Q 2970 2278 2829 2483 
Q 2496 2893 1965 2893 
Q 1696 2893 1481 2787 
Q 1267 2682 1101 2483 
Q 954 2278 874 2016 
Q 794 1754 794 1453 
Q 794 1146 874 883 
Q 954 621 1101 422 
Q 1440 6 1965 6 
Q 2234 6 2448 115 
Q 2662 224 2829 422 
Q 2970 621 3050 883 
Q 3130 1146 3130 1453 
z
M 3603 1453 
Q 3603 1075 3494 752 
Q 3386 429 3206 186 
Q 2982 -83 2672 -230 
Q 2362 -378 1965 -378 
Q 1568 -378 1254 -230 
Q 941 -83 717 186 
Q 538 429 432 752 
Q 326 1075 326 1453 
Q 326 2227 717 2720 
Q 1165 3277 1965 3277 
Q 2368 3277 2675 3139 
Q 2982 3002 3206 2720 
Q 3603 2214 3603 1453 
z
" transform="scale(0.015625)"/>
       <path id="NanumGothic-66" d="M 2144 4870 
Q 2227 4845 2221 4736 
L 2208 4550 
Q 2202 4512 2176 4502 
Q 2150 4493 2118 4506 
Q 2048 4531 1990 4540 
Q 1933 4550 1856 4550 
Q 1478 4550 1370 4173 
Q 1325 4019 1325 3494 
L 1325 3187 
L 2029 3187 
Q 2118 3187 2118 3098 
L 2118 2906 
Q 2118 2816 2029 2816 
L 1325 2816 
L 1325 -186 
Q 1325 -275 1235 -275 
L 986 -275 
Q 896 -275 896 -186 
L 896 2816 
L 275 2816 
Q 186 2816 186 2906 
L 186 3098 
Q 186 3187 275 3187 
L 896 3187 
L 896 3450 
Q 896 4147 1024 4454 
Q 1222 4915 1818 4915 
Q 2003 4915 2144 4870 
z
" transform="scale(0.015625)"/>
       <path id="NanumGothic-63" d="M 2816 -301 
Q 2624 -333 2445 -345 
Q 2266 -358 2016 -358 
Q 1619 -358 1308 -217 
Q 998 -77 784 166 
Q 570 410 454 742 
Q 339 1075 339 1459 
Q 339 1850 460 2179 
Q 582 2509 809 2749 
Q 1037 2989 1353 3126 
Q 1670 3264 2067 3264 
Q 2278 3264 2451 3248 
Q 2624 3232 2822 3187 
Q 2912 3162 2906 3066 
L 2886 2861 
Q 2874 2784 2790 2803 
Q 2624 2854 2470 2876 
Q 2317 2899 2131 2899 
Q 1805 2899 1558 2793 
Q 1312 2688 1145 2496 
Q 979 2304 896 2038 
Q 813 1773 813 1459 
Q 813 1171 899 908 
Q 986 646 1149 444 
Q 1312 243 1545 124 
Q 1779 6 2080 6 
Q 2304 6 2451 25 
Q 2598 45 2784 96 
Q 2880 122 2886 51 
L 2906 -186 
Q 2912 -282 2816 -301 
z
" transform="scale(0.015625)"/>
       <path id="NanumGothic-6c" d="M 1056 -186 
Q 1056 -275 966 -275 
L 685 -275 
Q 595 -275 595 -186 
L 595 4723 
Q 595 4813 685 4813 
L 966 4813 
Q 1056 4813 1056 4723 
L 1056 -186 
z
" transform="scale(0.015625)"/>
       <path id="NanumGothic-73" d="M 422 147 
Q 813 -13 1229 -13 
Q 1574 -13 1798 156 
Q 2022 326 2022 614 
Q 2022 781 1897 937 
Q 1773 1094 1594 1197 
Q 1395 1306 1187 1405 
Q 979 1504 787 1613 
Q 557 1741 448 1929 
Q 339 2118 339 2323 
Q 339 2560 428 2739 
Q 518 2918 672 3040 
Q 826 3162 1030 3219 
Q 1235 3277 1466 3277 
Q 1709 3277 1888 3251 
Q 2067 3226 2246 3174 
Q 2285 3162 2313 3136 
Q 2342 3110 2336 3066 
L 2317 2874 
Q 2310 2822 2278 2809 
Q 2246 2797 2214 2810 
Q 2054 2867 1894 2889 
Q 1734 2912 1510 2912 
Q 768 2912 768 2323 
Q 768 2195 867 2080 
Q 966 1965 1203 1850 
Q 1408 1747 1606 1654 
Q 1805 1562 2035 1434 
Q 2234 1325 2365 1101 
Q 2496 877 2496 614 
Q 2496 358 2393 172 
Q 2291 -13 2118 -134 
Q 1946 -256 1722 -317 
Q 1498 -378 1261 -378 
Q 1120 -378 1008 -371 
Q 896 -365 797 -352 
Q 698 -339 595 -320 
Q 493 -301 378 -269 
Q 288 -237 294 -154 
L 320 83 
Q 333 186 422 147 
z
" transform="scale(0.015625)"/>
       <path id="NanumGothic-74" d="M 2208 -282 
Q 1939 -378 1677 -378 
Q 1158 -378 992 -38 
Q 883 192 883 774 
L 883 2816 
L 282 2816 
Q 192 2816 192 2906 
L 192 3098 
Q 192 3187 282 3187 
L 883 3187 
L 883 4051 
Q 883 4147 966 4147 
L 1235 4147 
Q 1318 4147 1318 4051 
L 1318 3187 
L 2029 3187 
Q 2118 3187 2118 3098 
L 2118 2906 
Q 2118 2816 2029 2816 
L 1318 2816 
L 1318 557 
Q 1318 -13 1779 -13 
Q 1958 -13 2182 64 
Q 2214 77 2243 64 
Q 2272 51 2272 13 
L 2285 -154 
Q 2298 -243 2208 -282 
z
" transform="scale(0.015625)"/>
       <path id="NanumGothic-2c" d="M 1299 115 
Q 1382 115 1382 86 
Q 1382 58 1370 19 
L 947 -1126 
Q 922 -1178 899 -1194 
Q 877 -1210 832 -1210 
L 563 -1210 
Q 480 -1210 499 -1120 
L 800 6 
Q 813 45 838 80 
Q 864 115 934 115 
L 1299 115 
z
" transform="scale(0.015625)"/>
       <path id="NanumGothic-6b" d="M 1734 1645 
L 3117 -186 
Q 3136 -218 3129 -246 
Q 3123 -275 3085 -275 
L 2810 -275 
Q 2746 -275 2694 -256 
Q 2643 -237 2611 -186 
L 1459 1338 
L 1030 858 
L 1030 -186 
Q 1030 -275 941 -275 
L 685 -275 
Q 595 -275 595 -186 
L 595 4730 
Q 595 4819 685 4819 
L 941 4819 
Q 1030 4819 1030 4730 
L 1030 1395 
L 2490 3098 
Q 2579 3187 2701 3187 
L 3002 3187 
Q 3040 3187 3053 3158 
Q 3066 3130 3034 3098 
L 1734 1645 
z
" transform="scale(0.015625)"/>
      </defs>
      <use xlink:href="#NanumGothic-6e"/>
      <use xlink:href="#NanumGothic-75" x="60.599991"/>
      <use xlink:href="#NanumGothic-6d" x="121.199982"/>
      <use xlink:href="#NanumGothic-62" x="211.999969"/>
      <use xlink:href="#NanumGothic-65" x="272.59996"/>
      <use xlink:href="#NanumGothic-72" x="327.099945"/>
      <use xlink:href="#NanumGothic-20" x="363.399933"/>
      <use xlink:href="#NanumGothic-6f" x="391.399918"/>
      <use xlink:href="#NanumGothic-66" x="451.999908"/>
      <use xlink:href="#NanumGothic-20" x="488.299896"/>
      <use xlink:href="#NanumGothic-63" x="516.299881"/>
      <use xlink:href="#NanumGothic-6c" x="564.699875"/>
      <use xlink:href="#NanumGothic-75" x="588.899872"/>
      <use xlink:href="#NanumGothic-73" x="649.499863"/>
      <use xlink:href="#NanumGothic-74" x="691.899857"/>
      <use xlink:href="#NanumGothic-65" x="728.199844"/>
      <use xlink:href="#NanumGothic-72" x="782.699829"/>
      <use xlink:href="#NanumGothic-73" x="818.999817"/>
      <use xlink:href="#NanumGothic-2c" x="861.399811"/>
      <use xlink:href="#NanumGothic-20" x="891.699799"/>
      <use xlink:href="#NanumGothic-6b" x="919.699783"/>
     </g>
    </g>
   </g>
   <g id="matplotlib.axis_2">
    <g id="ytick_1">
     <g id="line2d_39">
      <path d="M 65.931875 243.617235 
L 423.051875 243.617235 
" clip-path="url(#pbc1baa33f2)" style="fill: none; stroke: #ffffff; stroke-width: 0.8; stroke-linecap: square"/>
     </g>
     <g id="line2d_40">
      <defs>
       <path id="mcec59f399c" d="M 0 0 
L -3.5 0 
" style="stroke: #555555; stroke-width: 0.8"/>
      </defs>
      <g>
       <use xlink:href="#mcec59f399c" x="65.931875" y="243.617235" style="fill: #555555; stroke: #555555; stroke-width: 0.8"/>
      </g>
     </g>
     <g id="text_21">
      <!-- 100000 -->
      <g style="fill: #555555" transform="translate(22.575625 247.377392) scale(0.1 -0.1)">
       <use xlink:href="#NanumGothic-31"/>
       <use xlink:href="#NanumGothic-30" x="60.599991"/>
       <use xlink:href="#NanumGothic-30" x="121.199982"/>
       <use xlink:href="#NanumGothic-30" x="181.799973"/>
       <use xlink:href="#NanumGothic-30" x="242.399963"/>
       <use xlink:href="#NanumGothic-30" x="302.999954"/>
      </g>
     </g>
    </g>
    <g id="ytick_2">
     <g id="line2d_41">
      <path d="M 65.931875 195.217454 
L 423.051875 195.217454 
" clip-path="url(#pbc1baa33f2)" style="fill: none; stroke: #ffffff; stroke-width: 0.8; stroke-linecap: square"/>
     </g>
     <g id="line2d_42">
      <g>
       <use xlink:href="#mcec59f399c" x="65.931875" y="195.217454" style="fill: #555555; stroke: #555555; stroke-width: 0.8"/>
      </g>
     </g>
     <g id="text_22">
      <!-- 200000 -->
      <g style="fill: #555555" transform="translate(22.575625 198.97761) scale(0.1 -0.1)">
       <use xlink:href="#NanumGothic-32"/>
       <use xlink:href="#NanumGothic-30" x="60.599991"/>
       <use xlink:href="#NanumGothic-30" x="121.199982"/>
       <use xlink:href="#NanumGothic-30" x="181.799973"/>
       <use xlink:href="#NanumGothic-30" x="242.399963"/>
       <use xlink:href="#NanumGothic-30" x="302.999954"/>
      </g>
     </g>
    </g>
    <g id="ytick_3">
     <g id="line2d_43">
      <path d="M 65.931875 146.817672 
L 423.051875 146.817672 
" clip-path="url(#pbc1baa33f2)" style="fill: none; stroke: #ffffff; stroke-width: 0.8; stroke-linecap: square"/>
     </g>
     <g id="line2d_44">
      <g>
       <use xlink:href="#mcec59f399c" x="65.931875" y="146.817672" style="fill: #555555; stroke: #555555; stroke-width: 0.8"/>
      </g>
     </g>
     <g id="text_23">
      <!-- 300000 -->
      <g style="fill: #555555" transform="translate(22.575625 150.577828) scale(0.1 -0.1)">
       <use xlink:href="#NanumGothic-33"/>
       <use xlink:href="#NanumGothic-30" x="60.599991"/>
       <use xlink:href="#NanumGothic-30" x="121.199982"/>
       <use xlink:href="#NanumGothic-30" x="181.799973"/>
       <use xlink:href="#NanumGothic-30" x="242.399963"/>
       <use xlink:href="#NanumGothic-30" x="302.999954"/>
      </g>
     </g>
    </g>
    <g id="ytick_4">
     <g id="line2d_45">
      <path d="M 65.931875 98.417891 
L 423.051875 98.417891 
" clip-path="url(#pbc1baa33f2)" style="fill: none; stroke: #ffffff; stroke-width: 0.8; stroke-linecap: square"/>
     </g>
     <g id="line2d_46">
      <g>
       <use xlink:href="#mcec59f399c" x="65.931875" y="98.417891" style="fill: #555555; stroke: #555555; stroke-width: 0.8"/>
      </g>
     </g>
     <g id="text_24">
      <!-- 400000 -->
      <g style="fill: #555555" transform="translate(22.575625 102.178047) scale(0.1 -0.1)">
       <use xlink:href="#NanumGothic-34"/>
       <use xlink:href="#NanumGothic-30" x="60.599991"/>
       <use xlink:href="#NanumGothic-30" x="121.199982"/>
       <use xlink:href="#NanumGothic-30" x="181.799973"/>
       <use xlink:href="#NanumGothic-30" x="242.399963"/>
       <use xlink:href="#NanumGothic-30" x="302.999954"/>
      </g>
     </g>
    </g>
    <g id="ytick_5">
     <g id="line2d_47">
      <path d="M 65.931875 50.018109 
L 423.051875 50.018109 
" clip-path="url(#pbc1baa33f2)" style="fill: none; stroke: #ffffff; stroke-width: 0.8; stroke-linecap: square"/>
     </g>
     <g id="line2d_48">
      <g>
       <use xlink:href="#mcec59f399c" x="65.931875" y="50.018109" style="fill: #555555; stroke: #555555; stroke-width: 0.8"/>
      </g>
     </g>
     <g id="text_25">
      <!-- 500000 -->
      <g style="fill: #555555" transform="translate(22.575625 53.778265) scale(0.1 -0.1)">
       <use xlink:href="#NanumGothic-35"/>
       <use xlink:href="#NanumGothic-30" x="60.599991"/>
       <use xlink:href="#NanumGothic-30" x="121.199982"/>
       <use xlink:href="#NanumGothic-30" x="181.799973"/>
       <use xlink:href="#NanumGothic-30" x="242.399963"/>
       <use xlink:href="#NanumGothic-30" x="302.999954"/>
      </g>
     </g>
    </g>
    <g id="text_26">
     <!-- inertia -->
     <g style="fill: #555555" transform="translate(16.224375 174.664875) rotate(-90) scale(0.12 -0.12)">
      <defs>
       <path id="NanumGothic-69" d="M 1050 -186 
Q 1050 -275 960 -275 
L 678 -275 
Q 589 -275 589 -186 
L 589 3098 
Q 589 3187 678 3187 
L 960 3187 
Q 1050 3187 1050 3098 
L 1050 -186 
z
M 506 4397 
Q 506 4525 595 4617 
Q 685 4710 813 4710 
Q 941 4710 1033 4617 
Q 1126 4525 1126 4397 
Q 1126 4269 1033 4179 
Q 941 4090 813 4090 
Q 685 4090 595 4179 
Q 506 4269 506 4397 
z
" transform="scale(0.015625)"/>
       <path id="NanumGothic-61" d="M 2566 1530 
L 2445 1530 
Q 2086 1542 1808 1500 
Q 1530 1459 1344 1389 
Q 1075 1293 940 1104 
Q 806 915 806 653 
Q 806 493 857 355 
Q 909 218 1018 141 
Q 1210 -13 1530 -13 
Q 1754 -13 1942 76 
Q 2131 166 2272 332 
Q 2413 499 2489 745 
Q 2566 992 2566 1312 
L 2566 1530 
z
M 742 2650 
Q 710 2630 681 2640 
Q 653 2650 653 2682 
L 653 2925 
Q 653 3014 742 3059 
Q 966 3181 1219 3229 
Q 1472 3277 1773 3277 
Q 2413 3277 2707 2973 
Q 3002 2669 3002 2054 
L 3002 448 
Q 3002 256 3008 105 
Q 3014 -45 3027 -186 
Q 3027 -275 2938 -275 
L 2707 -275 
Q 2618 -275 2618 -186 
L 2618 307 
Q 2483 -19 2166 -198 
Q 1850 -378 1478 -378 
Q 832 -378 531 0 
Q 429 128 377 297 
Q 326 467 326 634 
Q 326 1024 508 1305 
Q 691 1587 1069 1728 
Q 1530 1894 2483 1894 
L 2566 1894 
L 2566 2086 
Q 2566 2490 2384 2701 
Q 2202 2912 1773 2912 
Q 1485 2912 1229 2851 
Q 973 2790 742 2650 
z
" transform="scale(0.015625)"/>
      </defs>
      <use xlink:href="#NanumGothic-69"/>
      <use xlink:href="#NanumGothic-6e" x="24.199997"/>
      <use xlink:href="#NanumGothic-65" x="84.799988"/>
      <use xlink:href="#NanumGothic-72" x="139.299973"/>
      <use xlink:href="#NanumGothic-74" x="175.59996"/>
      <use xlink:href="#NanumGothic-69" x="211.899948"/>
      <use xlink:href="#NanumGothic-61" x="236.099945"/>
     </g>
    </g>
   </g>
   <g id="line2d_49">
    <path d="M 82.164602 36.26925 
L 100.200966 150.953387 
L 118.23733 190.982697 
L 136.273693 218.878429 
L 154.310057 236.862683 
L 172.34642 245.786358 
L 190.382784 252.434849 
L 208.419148 256.190716 
L 226.455511 259.851315 
L 244.491875 263.481109 
L 262.528239 266.153596 
L 280.564602 268.524468 
L 298.600966 270.571473 
L 316.63733 272.440713 
L 334.673693 274.288181 
L 352.710057 275.643538 
L 370.74642 276.876794 
L 388.782784 277.527361 
L 406.819148 278.18925 
" clip-path="url(#pbc1baa33f2)" style="fill: none; stroke: #000000; stroke-width: 1.5; stroke-linecap: square"/>
    <defs>
     <path id="m4c25e3c2e2" d="M 0 3 
C 0.795609 3 1.55874 2.683901 2.12132 2.12132 
C 2.683901 1.55874 3 0.795609 3 0 
C 3 -0.795609 2.683901 -1.55874 2.12132 -2.12132 
C 1.55874 -2.683901 0.795609 -3 0 -3 
C -0.795609 -3 -1.55874 -2.683901 -2.12132 -2.12132 
C -2.683901 -1.55874 -3 -0.795609 -3 0 
C -3 0.795609 -2.683901 1.55874 -2.12132 2.12132 
C -1.55874 2.683901 -0.795609 3 0 3 
z
" style="stroke: #000000"/>
    </defs>
    <g clip-path="url(#pbc1baa33f2)">
     <use xlink:href="#m4c25e3c2e2" x="82.164602" y="36.26925" style="stroke: #000000"/>
     <use xlink:href="#m4c25e3c2e2" x="100.200966" y="150.953387" style="stroke: #000000"/>
     <use xlink:href="#m4c25e3c2e2" x="118.23733" y="190.982697" style="stroke: #000000"/>
     <use xlink:href="#m4c25e3c2e2" x="136.273693" y="218.878429" style="stroke: #000000"/>
     <use xlink:href="#m4c25e3c2e2" x="154.310057" y="236.862683" style="stroke: #000000"/>
     <use xlink:href="#m4c25e3c2e2" x="172.34642" y="245.786358" style="stroke: #000000"/>
     <use xlink:href="#m4c25e3c2e2" x="190.382784" y="252.434849" style="stroke: #000000"/>
     <use xlink:href="#m4c25e3c2e2" x="208.419148" y="256.190716" style="stroke: #000000"/>
     <use xlink:href="#m4c25e3c2e2" x="226.455511" y="259.851315" style="stroke: #000000"/>
     <use xlink:href="#m4c25e3c2e2" x="244.491875" y="263.481109" style="stroke: #000000"/>
     <use xlink:href="#m4c25e3c2e2" x="262.528239" y="266.153596" style="stroke: #000000"/>
     <use xlink:href="#m4c25e3c2e2" x="280.564602" y="268.524468" style="stroke: #000000"/>
     <use xlink:href="#m4c25e3c2e2" x="298.600966" y="270.571473" style="stroke: #000000"/>
     <use xlink:href="#m4c25e3c2e2" x="316.63733" y="272.440713" style="stroke: #000000"/>
     <use xlink:href="#m4c25e3c2e2" x="334.673693" y="274.288181" style="stroke: #000000"/>
     <use xlink:href="#m4c25e3c2e2" x="352.710057" y="275.643538" style="stroke: #000000"/>
     <use xlink:href="#m4c25e3c2e2" x="370.74642" y="276.876794" style="stroke: #000000"/>
     <use xlink:href="#m4c25e3c2e2" x="388.782784" y="277.527361" style="stroke: #000000"/>
     <use xlink:href="#m4c25e3c2e2" x="406.819148" y="278.18925" style="stroke: #000000"/>
    </g>
   </g>
   <g id="patch_3">
    <path d="M 65.931875 290.28525 
L 65.931875 24.17325 
" style="fill: none; stroke: #ffffff; stroke-linejoin: miter; stroke-linecap: square"/>
   </g>
   <g id="patch_4">
    <path d="M 423.051875 290.28525 
L 423.051875 24.17325 
" style="fill: none; stroke: #ffffff; stroke-linejoin: miter; stroke-linecap: square"/>
   </g>
   <g id="patch_5">
    <path d="M 65.931875 290.28525 
L 423.051875 290.28525 
" style="fill: none; stroke: #ffffff; stroke-linejoin: miter; stroke-linecap: square"/>
   </g>
   <g id="patch_6">
    <path d="M 65.931875 24.17325 
L 423.051875 24.17325 
" style="fill: none; stroke: #ffffff; stroke-linejoin: miter; stroke-linecap: square"/>
   </g>
   <g id="text_27">
    <!-- 2018-2022 수도권 아파트 실거래가 k값추정_거래가격 포함 -->
    <g transform="translate(60.6365 18.17325) scale(0.144 -0.144)">
     <defs>
      <path id="NanumGothic-2d" d="M 1946 2419 
Q 2016 2419 2025 2409 
Q 2035 2400 2035 2330 
L 2035 2048 
Q 2035 1978 2025 1968 
Q 2016 1958 1946 1958 
L 448 1958 
Q 378 1958 368 1968 
Q 358 1978 358 2048 
L 358 2330 
Q 358 2400 368 2409 
Q 378 2419 448 2419 
L 1946 2419 
z
" transform="scale(0.015625)"/>
      <path id="NanumGothic-c218" d="M 2854 -858 
Q 2822 -858 2796 -829 
Q 2771 -800 2771 -762 
L 2771 1325 
L 288 1325 
Q 250 1325 221 1350 
Q 192 1376 192 1408 
L 192 1626 
Q 192 1664 221 1686 
Q 250 1709 288 1709 
L 5728 1709 
Q 5760 1709 5792 1686 
Q 5824 1664 5824 1626 
L 5824 1408 
Q 5824 1376 5792 1350 
Q 5760 1325 5728 1325 
L 3213 1325 
L 3213 -762 
Q 3213 -800 3190 -829 
Q 3168 -858 3130 -858 
L 2854 -858 
z
M 3232 4864 
Q 3219 4781 3200 4704 
Q 3181 4627 3162 4557 
Q 3181 4486 3206 4425 
Q 3232 4365 3264 4307 
Q 3373 4096 3584 3881 
Q 3795 3667 4070 3478 
Q 4346 3290 4666 3142 
Q 4986 2995 5325 2912 
Q 5363 2899 5376 2860 
Q 5389 2822 5376 2790 
L 5274 2573 
Q 5254 2541 5232 2528 
Q 5210 2515 5146 2528 
Q 4806 2618 4473 2774 
Q 4141 2931 3853 3136 
Q 3565 3341 3331 3577 
Q 3098 3814 2950 4058 
Q 2675 3558 2163 3158 
Q 1651 2758 877 2451 
Q 774 2413 749 2477 
L 627 2701 
Q 614 2733 624 2771 
Q 634 2810 672 2822 
Q 1088 2963 1465 3196 
Q 1843 3430 2131 3712 
Q 2419 3994 2595 4301 
Q 2771 4608 2790 4909 
Q 2797 4986 2874 4986 
L 3162 4954 
Q 3194 4947 3219 4928 
Q 3245 4909 3232 4864 
z
" transform="scale(0.015625)"/>
      <path id="NanumGothic-b3c4" d="M 5030 1984 
Q 5030 1894 4947 1894 
L 3213 1894 
L 3213 499 
L 5728 499 
Q 5760 499 5792 476 
Q 5824 454 5824 416 
L 5824 198 
Q 5824 166 5792 140 
Q 5760 115 5728 115 
L 288 115 
Q 250 115 221 140 
Q 192 166 192 198 
L 192 416 
Q 192 454 221 476 
Q 250 499 288 499 
L 2771 499 
L 2771 1894 
L 1491 1894 
Q 1210 1894 1107 1987 
Q 1005 2080 1005 2349 
L 1005 4134 
Q 1005 4403 1107 4496 
Q 1210 4589 1491 4589 
L 4902 4589 
Q 4986 4589 4986 4506 
L 4986 4294 
Q 4986 4205 4902 4205 
L 1600 4205 
Q 1510 4205 1478 4166 
Q 1446 4128 1446 4032 
L 1446 2445 
Q 1446 2355 1478 2316 
Q 1510 2278 1600 2278 
L 4947 2278 
Q 5030 2278 5030 2195 
L 5030 1984 
z
" transform="scale(0.015625)"/>
      <path id="NanumGothic-ad8c" d="M 787 4531 
Q 787 4570 819 4589 
Q 851 4608 883 4608 
L 3091 4608 
Q 3245 4608 3337 4576 
Q 3430 4544 3481 4483 
Q 3533 4422 3552 4326 
Q 3571 4230 3578 4096 
Q 3584 3930 3571 3731 
Q 3558 3533 3532 3328 
Q 3507 3123 3472 2924 
Q 3437 2726 3398 2560 
Q 3661 2592 3888 2624 
Q 4115 2656 4282 2688 
Q 4365 2707 4378 2630 
L 4410 2419 
Q 4416 2342 4339 2323 
Q 3930 2253 3418 2185 
Q 2906 2118 2413 2086 
L 2413 806 
Q 2413 768 2390 739 
Q 2368 710 2330 710 
L 2054 710 
Q 2022 710 1996 739 
Q 1971 768 1971 806 
L 1971 2061 
Q 1773 2048 1549 2041 
Q 1325 2035 1110 2028 
Q 896 2022 707 2019 
Q 518 2016 390 2022 
Q 352 2022 323 2048 
Q 294 2074 294 2106 
L 294 2323 
Q 294 2362 323 2384 
Q 352 2406 390 2406 
Q 576 2406 832 2409 
Q 1088 2413 1357 2419 
Q 1626 2426 1875 2435 
Q 2125 2445 2298 2458 
Q 2445 2470 2611 2483 
Q 2778 2496 2950 2509 
Q 2989 2669 3027 2880 
Q 3066 3091 3094 3308 
Q 3123 3526 3136 3731 
Q 3149 3936 3142 4090 
Q 3136 4179 3110 4201 
Q 3085 4224 2995 4224 
L 883 4224 
Q 851 4224 819 4246 
Q 787 4269 787 4301 
L 787 4531 
z
M 4710 1670 
L 4710 4915 
Q 4710 5005 4800 5005 
L 5062 5005 
Q 5152 5005 5152 4915 
L 5152 493 
Q 5152 403 5062 403 
L 4800 403 
Q 4710 403 4710 493 
L 4710 1286 
L 3430 1286 
Q 3347 1286 3347 1363 
L 3347 1594 
Q 3347 1670 3430 1670 
L 4710 1670 
z
M 5306 -704 
Q 5306 -742 5274 -761 
Q 5242 -781 5210 -781 
L 1728 -781 
Q 1427 -781 1334 -669 
Q 1242 -557 1242 -294 
L 1242 640 
Q 1242 730 1331 730 
L 1594 730 
Q 1683 730 1683 640 
L 1683 -262 
Q 1683 -352 1712 -374 
Q 1741 -397 1830 -397 
L 5210 -397 
Q 5242 -397 5274 -419 
Q 5306 -442 5306 -474 
L 5306 -704 
z
" transform="scale(0.015625)"/>
      <path id="NanumGothic-c544" d="M 3533 2566 
Q 3533 2208 3446 1843 
Q 3360 1478 3174 1184 
Q 2989 890 2697 701 
Q 2406 512 1997 512 
Q 1574 512 1283 697 
Q 992 883 816 1180 
Q 640 1478 563 1843 
Q 486 2208 486 2566 
Q 486 2944 563 3312 
Q 640 3680 816 3974 
Q 992 4269 1283 4448 
Q 1574 4627 1997 4627 
Q 2406 4627 2697 4448 
Q 2989 4269 3174 3977 
Q 3360 3686 3446 3318 
Q 3533 2950 3533 2566 
z
M 3078 2573 
Q 3078 2861 3017 3155 
Q 2957 3450 2829 3686 
Q 2701 3923 2496 4070 
Q 2291 4218 1997 4218 
Q 1690 4218 1488 4070 
Q 1286 3923 1164 3686 
Q 1043 3450 992 3155 
Q 941 2861 941 2573 
Q 941 2298 989 2003 
Q 1037 1709 1158 1469 
Q 1280 1229 1485 1075 
Q 1690 922 1997 922 
Q 2291 922 2496 1075 
Q 2701 1229 2829 1469 
Q 2957 1709 3017 2003 
Q 3078 2298 3078 2573 
z
M 4928 -806 
Q 4928 -896 4838 -896 
L 4576 -896 
Q 4486 -896 4486 -806 
L 4486 4915 
Q 4486 5005 4576 5005 
L 4838 5005 
Q 4928 5005 4928 4915 
L 4928 2586 
L 5811 2586 
Q 5850 2586 5878 2563 
Q 5907 2541 5907 2502 
L 5907 2285 
Q 5907 2253 5878 2227 
Q 5850 2202 5811 2202 
L 4928 2202 
L 4928 -806 
z
" transform="scale(0.015625)"/>
      <path id="NanumGothic-d30c" d="M 3955 1357 
Q 4058 1376 4064 1312 
L 4102 1088 
Q 4115 1011 4019 998 
Q 3846 966 3622 937 
Q 3398 909 3158 883 
Q 2918 858 2665 835 
Q 2413 813 2182 800 
Q 2003 787 1766 780 
Q 1530 774 1277 771 
Q 1024 768 781 768 
Q 538 768 352 774 
Q 314 774 285 800 
Q 256 826 256 858 
L 256 1075 
Q 256 1114 285 1133 
Q 314 1152 352 1152 
Q 493 1146 672 1142 
Q 851 1139 1050 1146 
L 1050 4147 
L 397 4147 
Q 365 4147 336 4172 
Q 307 4198 307 4237 
L 307 4435 
Q 307 4474 336 4499 
Q 365 4525 397 4525 
L 3648 4525 
Q 3744 4525 3744 4442 
L 3744 4230 
Q 3744 4147 3648 4147 
L 3181 4147 
L 3181 1248 
Q 3386 1274 3581 1299 
Q 3776 1325 3955 1357 
z
M 2170 1178 
Q 2317 1184 2457 1190 
Q 2598 1197 2746 1210 
L 2746 4147 
L 1485 4147 
L 1485 1152 
Q 1670 1158 1846 1161 
Q 2022 1165 2170 1178 
z
M 4928 -806 
Q 4928 -896 4838 -896 
L 4576 -896 
Q 4486 -896 4486 -806 
L 4486 4915 
Q 4486 5005 4576 5005 
L 4838 5005 
Q 4928 5005 4928 4915 
L 4928 2586 
L 5811 2586 
Q 5850 2586 5878 2563 
Q 5907 2541 5907 2502 
L 5907 2285 
Q 5907 2253 5878 2227 
Q 5850 2202 5811 2202 
L 4928 2202 
L 4928 -806 
z
" transform="scale(0.015625)"/>
      <path id="NanumGothic-d2b8" d="M 5030 1766 
Q 5030 1677 4947 1677 
L 1491 1677 
Q 1210 1677 1107 1769 
Q 1005 1862 1005 2131 
L 1005 4211 
Q 1005 4480 1107 4573 
Q 1210 4666 1491 4666 
L 4902 4666 
Q 4986 4666 4986 4582 
L 4986 4371 
Q 4986 4282 4902 4282 
L 1600 4282 
Q 1510 4282 1478 4246 
Q 1446 4211 1446 4115 
L 1446 3360 
L 4813 3360 
Q 4902 3360 4902 3290 
L 4902 3072 
Q 4902 2989 4819 2989 
L 1446 2989 
L 1446 2227 
Q 1446 2138 1478 2099 
Q 1510 2061 1600 2061 
L 4947 2061 
Q 5030 2061 5030 1978 
L 5030 1766 
z
M 5728 499 
Q 5760 499 5792 476 
Q 5824 454 5824 416 
L 5824 198 
Q 5824 166 5792 140 
Q 5760 115 5728 115 
L 288 115 
Q 250 115 221 140 
Q 192 166 192 198 
L 192 416 
Q 192 454 221 476 
Q 250 499 288 499 
L 5728 499 
z
" transform="scale(0.015625)"/>
      <path id="NanumGothic-c2e4" d="M 5286 -838 
Q 5286 -870 5257 -892 
Q 5229 -915 5203 -915 
L 1984 -915 
Q 1683 -915 1590 -803 
Q 1498 -691 1498 -422 
L 1498 58 
Q 1498 326 1610 419 
Q 1722 512 2010 512 
L 4570 512 
Q 4659 512 4684 537 
Q 4710 563 4710 659 
L 4710 1024 
Q 4710 1120 4688 1145 
Q 4666 1171 4576 1171 
L 1574 1171 
Q 1542 1171 1513 1190 
Q 1485 1210 1485 1242 
L 1485 1472 
Q 1485 1504 1513 1523 
Q 1542 1542 1574 1542 
L 4646 1542 
Q 4800 1542 4896 1520 
Q 4992 1498 5049 1446 
Q 5107 1395 5129 1302 
Q 5152 1210 5152 1075 
L 5152 595 
Q 5152 326 5040 233 
Q 4928 141 4640 141 
L 2074 141 
Q 1984 141 1961 115 
Q 1939 90 1939 -6 
L 1939 -397 
Q 1939 -486 1964 -515 
Q 1990 -544 2080 -544 
L 5197 -544 
Q 5229 -544 5257 -563 
Q 5286 -582 5286 -614 
L 5286 -838 
z
M 2355 4806 
Q 2349 4358 2240 3974 
Q 2323 3763 2470 3552 
Q 2618 3341 2806 3155 
Q 2995 2970 3216 2819 
Q 3437 2669 3667 2573 
Q 3706 2560 3706 2525 
Q 3706 2490 3693 2464 
L 3571 2246 
Q 3552 2208 3517 2205 
Q 3482 2202 3443 2214 
Q 3238 2304 3033 2441 
Q 2829 2579 2640 2748 
Q 2451 2918 2294 3100 
Q 2138 3283 2035 3462 
Q 1830 3078 1500 2742 
Q 1171 2406 691 2099 
Q 646 2067 617 2064 
Q 589 2061 557 2099 
L 397 2298 
Q 346 2368 429 2426 
Q 826 2675 1107 2940 
Q 1389 3206 1565 3497 
Q 1741 3789 1824 4115 
Q 1907 4442 1907 4813 
Q 1907 4864 1932 4889 
Q 1958 4915 1984 4915 
L 2285 4896 
Q 2355 4896 2355 4806 
z
M 5152 2003 
Q 5152 1914 5062 1914 
L 4800 1914 
Q 4710 1914 4710 2003 
L 4710 4915 
Q 4710 5005 4800 5005 
L 5062 5005 
Q 5152 5005 5152 4915 
L 5152 2003 
z
" transform="scale(0.015625)"/>
      <path id="NanumGothic-ac70" d="M 4710 2701 
L 4710 4915 
Q 4710 5005 4800 5005 
L 5062 5005 
Q 5152 5005 5152 4915 
L 5152 -806 
Q 5152 -896 5062 -896 
L 4800 -896 
Q 4710 -896 4710 -806 
L 4710 2317 
L 3398 2317 
Q 3315 2317 3315 2394 
L 3315 2624 
Q 3315 2701 3398 2701 
L 4710 2701 
z
M 3392 4064 
Q 3360 3514 3174 2982 
Q 2989 2451 2659 1968 
Q 2330 1485 1866 1072 
Q 1402 659 813 346 
Q 730 301 691 365 
L 550 589 
Q 506 666 576 698 
Q 1120 979 1539 1340 
Q 1958 1702 2256 2124 
Q 2554 2547 2726 3014 
Q 2899 3482 2944 3974 
Q 2957 4070 2918 4105 
Q 2880 4141 2790 4141 
L 755 4141 
Q 678 4141 678 4224 
L 678 4448 
Q 678 4525 755 4525 
L 2912 4525 
Q 3213 4525 3309 4413 
Q 3405 4301 3392 4064 
z
" transform="scale(0.015625)"/>
      <path id="NanumGothic-b798" d="M 4128 2586 
L 4941 2586 
L 4941 4915 
Q 4941 5005 5030 5005 
L 5274 5005 
Q 5363 5005 5363 4915 
L 5363 -806 
Q 5363 -896 5274 -896 
L 5030 -896 
Q 4941 -896 4941 -806 
L 4941 2202 
L 4128 2202 
L 4128 -563 
Q 4128 -653 4038 -653 
L 3795 -653 
Q 3706 -653 3706 -563 
L 3706 4806 
Q 3706 4896 3795 4896 
L 4038 4896 
Q 4128 4896 4128 4806 
L 4128 2586 
z
M 973 608 
Q 685 621 585 726 
Q 486 832 486 1101 
L 486 2323 
Q 486 2592 598 2685 
Q 710 2778 998 2778 
L 2227 2778 
Q 2317 2778 2342 2803 
Q 2368 2829 2368 2925 
L 2368 3949 
Q 2368 4045 2345 4070 
Q 2323 4096 2234 4096 
L 602 4096 
Q 570 4096 541 4115 
Q 512 4134 512 4166 
L 512 4410 
Q 512 4442 541 4461 
Q 570 4480 602 4480 
L 2304 4480 
Q 2458 4480 2554 4457 
Q 2650 4435 2707 4384 
Q 2765 4333 2787 4240 
Q 2810 4147 2810 4013 
L 2810 2848 
Q 2810 2579 2698 2486 
Q 2586 2394 2298 2394 
L 1062 2394 
Q 973 2394 950 2368 
Q 928 2342 928 2246 
L 928 1133 
Q 928 986 1069 986 
Q 1574 973 2124 1033 
Q 2675 1094 3232 1222 
Q 3322 1242 3341 1158 
L 3379 947 
Q 3392 864 3296 838 
Q 2746 710 2160 649 
Q 1574 589 973 608 
z
" transform="scale(0.015625)"/>
      <path id="NanumGothic-ac00" d="M 3245 4064 
Q 3213 3514 3027 2982 
Q 2842 2451 2512 1968 
Q 2182 1485 1718 1072 
Q 1254 659 666 346 
Q 582 301 544 365 
L 403 589 
Q 358 666 429 698 
Q 973 979 1392 1340 
Q 1811 1702 2108 2124 
Q 2406 2547 2579 3014 
Q 2752 3482 2797 3974 
Q 2810 4070 2771 4105 
Q 2733 4141 2643 4141 
L 659 4141 
Q 582 4141 582 4224 
L 582 4448 
Q 582 4525 659 4525 
L 2765 4525 
Q 3066 4525 3162 4413 
Q 3258 4301 3245 4064 
z
M 4928 -806 
Q 4928 -896 4838 -896 
L 4576 -896 
Q 4486 -896 4486 -806 
L 4486 4915 
Q 4486 5005 4576 5005 
L 4838 5005 
Q 4928 5005 4928 4915 
L 4928 2650 
L 5811 2650 
Q 5850 2650 5878 2627 
Q 5907 2605 5907 2566 
L 5907 2349 
Q 5907 2317 5878 2291 
Q 5850 2266 5811 2266 
L 4928 2266 
L 4928 -806 
z
" transform="scale(0.015625)"/>
      <path id="NanumGothic-ac12" d="M 1619 -966 
Q 1466 -966 1373 -947 
Q 1280 -928 1229 -873 
Q 1178 -819 1158 -732 
Q 1139 -646 1139 -512 
L 1139 1286 
Q 1139 1318 1164 1337 
Q 1190 1357 1222 1357 
L 1472 1357 
Q 1504 1357 1526 1334 
Q 1549 1312 1549 1286 
L 1549 621 
L 2707 621 
L 2707 1254 
Q 2707 1286 2729 1312 
Q 2752 1338 2784 1338 
L 3034 1338 
Q 3066 1338 3091 1315 
Q 3117 1293 3117 1261 
L 3117 -557 
Q 3117 -800 3014 -883 
Q 2912 -966 2630 -966 
L 1619 -966 
z
M 3290 4314 
Q 3142 3443 2515 2796 
Q 1888 2150 698 1651 
Q 634 1619 605 1632 
Q 576 1645 557 1690 
L 461 1901 
Q 435 1952 457 1984 
Q 480 2016 512 2029 
Q 1555 2458 2108 2986 
Q 2662 3514 2810 4198 
Q 2848 4384 2656 4384 
L 685 4384 
Q 608 4384 608 4467 
L 608 4691 
Q 608 4768 685 4768 
L 2803 4768 
Q 3110 4768 3219 4659 
Q 3328 4550 3290 4314 
z
M 5498 -890 
Q 5107 -646 4857 -396 
Q 4608 -147 4467 160 
Q 4320 -147 4086 -412 
Q 3853 -678 3507 -947 
Q 3482 -960 3443 -966 
Q 3405 -973 3373 -941 
L 3200 -768 
Q 3136 -691 3226 -634 
Q 3750 -262 4009 195 
Q 4269 653 4256 1299 
Q 4256 1331 4275 1366 
Q 4294 1402 4333 1395 
L 4627 1389 
Q 4698 1389 4698 1306 
Q 4698 1158 4685 1024 
Q 4672 890 4653 762 
Q 4742 358 5014 32 
Q 5286 -294 5702 -525 
Q 5792 -570 5741 -653 
L 5619 -858 
Q 5587 -896 5564 -905 
Q 5542 -915 5498 -890 
z
M 4928 1901 
Q 4928 1811 4838 1811 
L 4576 1811 
Q 4486 1811 4486 1901 
L 4486 4915 
Q 4486 5005 4576 5005 
L 4838 5005 
Q 4928 5005 4928 4915 
L 4928 3565 
L 5811 3565 
Q 5850 3565 5878 3542 
Q 5907 3520 5907 3482 
L 5907 3264 
Q 5907 3232 5878 3206 
Q 5850 3181 5811 3181 
L 4928 3181 
L 4928 1901 
z
M 1549 230 
L 1549 -422 
Q 1549 -518 1581 -547 
Q 1613 -576 1702 -576 
L 2554 -576 
Q 2643 -576 2675 -547 
Q 2707 -518 2707 -422 
L 2707 230 
L 1549 230 
z
" transform="scale(0.015625)"/>
      <path id="NanumGothic-cd94" d="M 4506 3501 
Q 4358 3347 4108 3180 
Q 3859 3014 3539 2848 
Q 3731 2790 3958 2720 
Q 4186 2650 4416 2586 
Q 4646 2522 4864 2467 
Q 5082 2413 5248 2381 
Q 5331 2362 5306 2291 
L 5229 2061 
Q 5210 1990 5114 2010 
Q 4928 2048 4672 2115 
Q 4416 2182 4134 2265 
Q 3853 2349 3568 2438 
Q 3283 2528 3034 2611 
Q 2502 2381 1920 2198 
Q 1338 2016 832 1939 
Q 774 1926 752 1939 
Q 730 1952 717 2003 
L 659 2208 
Q 646 2259 662 2284 
Q 678 2310 710 2317 
Q 1094 2381 1558 2515 
Q 2022 2650 2473 2822 
Q 2925 2995 3325 3193 
Q 3725 3392 3981 3584 
Q 4051 3635 4064 3696 
Q 4077 3757 3974 3757 
L 1210 3757 
Q 1126 3757 1126 3840 
L 1126 4064 
Q 1126 4141 1210 4141 
L 4147 4141 
Q 5107 4141 4506 3501 
z
M 2854 -858 
Q 2822 -858 2796 -829 
Q 2771 -800 2771 -762 
L 2771 1024 
L 288 1024 
Q 250 1024 221 1049 
Q 192 1075 192 1107 
L 192 1325 
Q 192 1363 221 1385 
Q 250 1408 288 1408 
L 5728 1408 
Q 5760 1408 5792 1385 
Q 5824 1363 5824 1325 
L 5824 1107 
Q 5824 1075 5792 1049 
Q 5760 1024 5728 1024 
L 3213 1024 
L 3213 -762 
Q 3213 -800 3190 -829 
Q 3168 -858 3130 -858 
L 2854 -858 
z
M 3814 5005 
Q 3910 5005 3910 4915 
L 3910 4710 
Q 3910 4614 3814 4614 
L 2093 4614 
Q 1997 4614 1997 4710 
L 1997 4915 
Q 1997 5005 2093 5005 
L 3814 5005 
z
" transform="scale(0.015625)"/>
      <path id="NanumGothic-c815" d="M 5178 250 
Q 5178 -26 5030 -243 
Q 4883 -461 4630 -611 
Q 4378 -762 4042 -842 
Q 3706 -922 3322 -922 
Q 2906 -922 2566 -842 
Q 2227 -762 1984 -611 
Q 1741 -461 1606 -243 
Q 1472 -26 1472 250 
Q 1472 518 1606 732 
Q 1741 947 1984 1097 
Q 2227 1248 2566 1328 
Q 2906 1408 3322 1408 
Q 3706 1408 4042 1328 
Q 4378 1248 4630 1101 
Q 4883 954 5030 739 
Q 5178 525 5178 250 
z
M 4723 230 
Q 4723 422 4608 569 
Q 4493 717 4297 816 
Q 4102 915 3846 969 
Q 3590 1024 3315 1024 
Q 3008 1024 2752 969 
Q 2496 915 2313 816 
Q 2131 717 2028 569 
Q 1926 422 1926 230 
Q 1926 45 2028 -99 
Q 2131 -243 2313 -339 
Q 2496 -435 2752 -486 
Q 3008 -538 3315 -538 
Q 3590 -538 3846 -486 
Q 4102 -435 4297 -339 
Q 4493 -243 4608 -99 
Q 4723 45 4723 230 
z
M 3309 4166 
Q 3219 3904 3056 3648 
Q 2893 3392 2669 3142 
Q 2886 2912 3206 2704 
Q 3526 2496 3904 2336 
Q 3955 2317 3961 2281 
Q 3968 2246 3949 2214 
L 3821 1984 
Q 3802 1952 3763 1949 
Q 3725 1946 3693 1958 
Q 3552 2022 3389 2112 
Q 3226 2202 3053 2317 
Q 2880 2432 2710 2566 
Q 2541 2701 2394 2848 
Q 2029 2490 1590 2195 
Q 1152 1901 704 1702 
Q 672 1690 640 1683 
Q 608 1677 589 1709 
L 461 1933 
Q 442 1965 458 2000 
Q 474 2035 506 2048 
Q 1331 2445 1913 2957 
Q 2496 3469 2822 4141 
Q 2867 4230 2835 4268 
Q 2803 4307 2714 4307 
L 838 4307 
Q 762 4307 762 4390 
L 762 4614 
Q 762 4691 838 4691 
L 2886 4691 
Q 3219 4691 3315 4572 
Q 3411 4454 3309 4166 
z
M 4710 3520 
L 4710 4915 
Q 4710 5005 4800 5005 
L 5062 5005 
Q 5152 5005 5152 4915 
L 5152 1549 
Q 5152 1459 5062 1459 
L 4800 1459 
Q 4710 1459 4710 1549 
L 4710 3136 
L 3526 3136 
Q 3443 3136 3443 3213 
L 3443 3443 
Q 3443 3520 3526 3520 
L 4710 3520 
z
" transform="scale(0.015625)"/>
      <path id="NanumGothic-5f" d="M 3392 -794 
Q 3462 -794 3472 -803 
Q 3482 -813 3482 -883 
L 3482 -1037 
Q 3482 -1107 3472 -1116 
Q 3462 -1126 3392 -1126 
L 154 -1126 
Q 83 -1126 73 -1116 
Q 64 -1107 64 -1037 
L 64 -883 
Q 64 -813 73 -803 
Q 83 -794 154 -794 
L 3392 -794 
z
" transform="scale(0.015625)"/>
      <path id="NanumGothic-aca9" d="M 3424 4211 
Q 3392 4026 3347 3866 
L 4710 3866 
L 4710 4915 
Q 4710 5005 4800 5005 
L 5062 5005 
Q 5152 5005 5152 4915 
L 5152 1638 
Q 5152 1549 5062 1549 
L 4800 1549 
Q 4710 1549 4710 1638 
L 4710 2336 
L 3085 2336 
Q 3002 2336 3002 2413 
L 3002 2637 
Q 3002 2714 3085 2714 
L 4710 2714 
L 4710 3488 
L 3213 3488 
Q 2944 2861 2374 2358 
Q 1805 1856 870 1466 
Q 768 1421 730 1504 
L 634 1715 
Q 608 1766 630 1798 
Q 653 1830 685 1843 
Q 1702 2266 2262 2848 
Q 2822 3430 2944 4102 
Q 2982 4282 2790 4282 
L 858 4282 
Q 781 4282 781 4365 
L 781 4589 
Q 781 4666 858 4666 
L 2938 4666 
Q 3245 4666 3353 4557 
Q 3462 4448 3424 4211 
z
M 1421 1165 
Q 1421 1203 1453 1222 
Q 1485 1242 1517 1242 
L 4666 1242 
Q 4966 1242 5059 1130 
Q 5152 1018 5152 755 
L 5152 -832 
Q 5152 -922 5062 -922 
L 4800 -922 
Q 4710 -922 4710 -832 
L 4710 723 
Q 4710 813 4681 835 
Q 4653 858 4563 858 
L 1517 858 
Q 1485 858 1453 880 
Q 1421 902 1421 934 
L 1421 1165 
z
" transform="scale(0.015625)"/>
      <path id="NanumGothic-d3ec" d="M 5165 1926 
Q 5165 1843 5069 1843 
L 3213 1843 
L 3213 499 
L 5728 499 
Q 5760 499 5792 476 
Q 5824 454 5824 416 
L 5824 198 
Q 5824 166 5792 140 
Q 5760 115 5728 115 
L 288 115 
Q 250 115 221 140 
Q 192 166 192 198 
L 192 416 
Q 192 454 221 476 
Q 250 499 288 499 
L 2771 499 
L 2771 1843 
L 870 1843 
Q 838 1843 809 1868 
Q 781 1894 781 1933 
L 781 2131 
Q 781 2170 809 2195 
Q 838 2221 870 2221 
L 1722 2221 
L 1722 4211 
L 998 4211 
Q 966 4211 937 4236 
Q 909 4262 909 4301 
L 909 4499 
Q 909 4538 937 4563 
Q 966 4589 998 4589 
L 4941 4589 
Q 5037 4589 5037 4506 
L 5037 4294 
Q 5037 4211 4941 4211 
L 4250 4211 
L 4250 2221 
L 5069 2221 
Q 5165 2221 5165 2138 
L 5165 1926 
z
M 2157 2221 
L 3814 2221 
L 3814 4211 
L 2157 4211 
L 2157 2221 
z
" transform="scale(0.015625)"/>
      <path id="NanumGothic-d568" d="M 1280 499 
Q 1280 768 1382 861 
Q 1485 954 1766 954 
L 4448 954 
Q 4602 954 4694 934 
Q 4787 915 4841 864 
Q 4896 813 4915 723 
Q 4934 634 4934 499 
L 4934 -390 
Q 4934 -659 4832 -752 
Q 4730 -845 4448 -845 
L 1766 -845 
Q 1613 -845 1520 -825 
Q 1427 -806 1372 -752 
Q 1318 -698 1299 -611 
Q 1280 -525 1280 -390 
L 1280 499 
z
M 3533 2413 
Q 3533 2182 3427 1993 
Q 3322 1805 3139 1664 
Q 2957 1523 2704 1446 
Q 2451 1370 2157 1370 
Q 1856 1370 1606 1446 
Q 1357 1523 1171 1664 
Q 986 1805 883 1997 
Q 781 2189 781 2413 
Q 781 2643 883 2835 
Q 986 3027 1171 3161 
Q 1357 3296 1606 3373 
Q 1856 3450 2157 3450 
Q 2451 3450 2704 3373 
Q 2957 3296 3139 3158 
Q 3322 3021 3427 2829 
Q 3533 2637 3533 2413 
z
M 1875 570 
Q 1786 570 1754 534 
Q 1722 499 1722 403 
L 1722 -294 
Q 1722 -390 1754 -425 
Q 1786 -461 1875 -461 
L 4339 -461 
Q 4429 -461 4461 -425 
Q 4493 -390 4493 -294 
L 4493 403 
Q 4493 499 4461 534 
Q 4429 570 4339 570 
L 1875 570 
z
M 3104 2413 
Q 3104 2566 3033 2691 
Q 2963 2816 2835 2902 
Q 2707 2989 2534 3037 
Q 2362 3085 2157 3085 
Q 1952 3085 1779 3037 
Q 1606 2989 1478 2902 
Q 1350 2816 1276 2691 
Q 1203 2566 1203 2413 
Q 1203 2259 1276 2134 
Q 1350 2010 1478 1920 
Q 1606 1830 1779 1782 
Q 1952 1734 2157 1734 
Q 2362 1734 2534 1782 
Q 2707 1830 2835 1920 
Q 2963 2010 3033 2134 
Q 3104 2259 3104 2413 
z
M 4928 1376 
Q 4928 1286 4838 1286 
L 4576 1286 
Q 4486 1286 4486 1376 
L 4486 4915 
Q 4486 5005 4576 5005 
L 4838 5005 
Q 4928 5005 4928 4915 
L 4928 3181 
L 5811 3181 
Q 5850 3181 5878 3158 
Q 5907 3136 5907 3098 
L 5907 2880 
Q 5907 2848 5878 2822 
Q 5850 2797 5811 2797 
L 4928 2797 
L 4928 1376 
z
M 4026 3821 
Q 4026 3738 3930 3738 
L 397 3738 
Q 365 3738 336 3763 
Q 307 3789 307 3827 
L 307 4032 
Q 307 4070 336 4096 
Q 365 4122 397 4122 
L 3930 4122 
Q 4026 4122 4026 4038 
L 4026 3821 
z
M 3091 4608 
Q 3091 4518 2995 4518 
L 1242 4518 
Q 1210 4518 1181 4540 
Q 1152 4563 1152 4602 
L 1152 4819 
Q 1152 4858 1177 4883 
Q 1203 4909 1235 4909 
L 2995 4909 
Q 3091 4909 3091 4819 
L 3091 4608 
z
" transform="scale(0.015625)"/>
     </defs>
     <use xlink:href="#NanumGothic-32"/>
     <use xlink:href="#NanumGothic-30" x="60.599991"/>
     <use xlink:href="#NanumGothic-31" x="121.199982"/>
     <use xlink:href="#NanumGothic-38" x="181.799973"/>
     <use xlink:href="#NanumGothic-2d" x="242.399963"/>
     <use xlink:href="#NanumGothic-32" x="278.699951"/>
     <use xlink:href="#NanumGothic-30" x="339.299942"/>
     <use xlink:href="#NanumGothic-32" x="399.899933"/>
     <use xlink:href="#NanumGothic-32" x="460.499924"/>
     <use xlink:href="#NanumGothic-20" x="521.099915"/>
     <use xlink:href="#NanumGothic-c218" x="549.099899"/>
     <use xlink:href="#NanumGothic-b3c4" x="643.099884"/>
     <use xlink:href="#NanumGothic-ad8c" x="737.099869"/>
     <use xlink:href="#NanumGothic-20" x="831.099854"/>
     <use xlink:href="#NanumGothic-c544" x="859.099838"/>
     <use xlink:href="#NanumGothic-d30c" x="953.099823"/>
     <use xlink:href="#NanumGothic-d2b8" x="1047.099808"/>
     <use xlink:href="#NanumGothic-20" x="1141.099792"/>
     <use xlink:href="#NanumGothic-c2e4" x="1169.099777"/>
     <use xlink:href="#NanumGothic-ac70" x="1263.099762"/>
     <use xlink:href="#NanumGothic-b798" x="1357.099747"/>
     <use xlink:href="#NanumGothic-ac00" x="1451.099731"/>
     <use xlink:href="#NanumGothic-20" x="1545.099716"/>
     <use xlink:href="#NanumGothic-6b" x="1573.099701"/>
     <use xlink:href="#NanumGothic-ac12" x="1625.099686"/>
     <use xlink:href="#NanumGothic-cd94" x="1719.09967"/>
     <use xlink:href="#NanumGothic-c815" x="1813.099655"/>
     <use xlink:href="#NanumGothic-5f" x="1907.09964"/>
     <use xlink:href="#NanumGothic-ac70" x="1961.599625"/>
     <use xlink:href="#NanumGothic-b798" x="2055.599609"/>
     <use xlink:href="#NanumGothic-ac00" x="2149.599594"/>
     <use xlink:href="#NanumGothic-aca9" x="2243.599579"/>
     <use xlink:href="#NanumGothic-20" x="2337.599564"/>
     <use xlink:href="#NanumGothic-d3ec" x="2365.599548"/>
     <use xlink:href="#NanumGothic-d568" x="2459.599533"/>
    </g>
   </g>
  </g>
 </g>
 <defs>
  <clipPath id="pbc1baa33f2">
   <rect x="65.931875" y="24.17325" width="357.12" height="266.112"/>
  </clipPath>
 </defs>
</svg>
